# Blender 5.2.0 LTS
# www.blender.org
mtllib scorch white.mtl
o mesh.002
v -0.351612 0.353390 -0.334794
v 0.142877 0.068384 -0.125536
v -0.257350 0.386022 -0.318267
v -0.338064 0.381013 -0.338580
v -0.299449 0.381306 -0.369746
v -0.328343 0.371282 -0.374806
v -0.309169 0.391039 -0.333519
v -0.247630 0.376289 -0.354493
v -0.341891 0.343657 -0.371020
v -0.263922 0.229853 -0.319523
v -0.273642 0.239585 -0.283298
v -0.180763 0.137956 -0.231072
v -0.171043 0.128224 -0.267298
v 0.103724 -0.002440 -0.117015
v 0.142877 0.068384 0.129532
v 0.142877 0.068384 0.129532
v 0.152598 0.058652 0.165757
v -0.160286 0.343551 0.284806
v -0.160286 0.343551 -0.280810
v 0.152598 0.058652 -0.161762
v -0.150565 0.333818 -0.317037
v 0.113445 -0.012173 -0.153241
v -0.247630 0.376289 0.358488
v -0.309169 0.391039 0.337514
v -0.299449 0.381306 0.373741
v -0.171043 0.128224 0.271293
v 0.103724 -0.002440 0.121010
v 0.113445 -0.012173 0.157236
v -0.263922 0.229854 0.323518
v -0.180763 0.137956 0.235067
v -0.351612 0.353390 0.338789
v -0.341891 0.343657 0.375015
v -0.328343 0.371282 0.378801
v -0.338064 0.381013 0.342575
v -0.150565 0.333818 0.321032
v -0.257350 0.386022 0.322261
v -0.273642 0.239585 0.287293
v 0.534459 0.164433 -0.105613
v 0.624134 0.056821 -0.157125
v 0.534459 0.164433 -0.157125
v 0.426849 0.056829 -0.105613
v 0.177604 0.306654 -0.157125
v 0.426849 0.056829 -0.157125
v 0.177604 0.306654 -0.105613
v 0.321084 0.306654 -0.157125
v 0.462493 0.164433 -0.105613
v 0.534459 0.164433 0.109607
v 0.624134 0.056823 0.161121
v 0.624134 0.056821 0.109607
v 0.177604 0.306654 0.161121
v 0.426849 0.056829 0.109607
v 0.426849 0.056829 0.161121
v 0.177604 0.306654 0.109607
v 0.321084 0.306654 0.161121
v 0.321084 0.306654 0.109607
v 0.534459 0.164433 0.161121
v 0.462493 0.164433 0.109607
v 0.462256 0.164054 0.161121
v 0.248041 -0.283200 -0.074452
v -0.061570 -0.757328 -0.750691
v -0.054742 -0.729081 -0.771719
v 0.167755 -0.361376 -0.144347
v -0.149732 -0.321166 -0.254614
v -0.156559 -0.349413 -0.233587
v -0.141757 -0.669864 -0.659240
v -0.119389 -0.725454 -0.787839
v -0.108117 -0.765860 -0.777265
v -0.126217 -0.753701 -0.766811
v -0.131400 -0.725751 -0.730949
v -0.134929 -0.641618 -0.680268
v -0.101289 -0.737612 -0.798293
v 0.241213 -0.311447 0.057420
v -0.054742 -0.729080 0.775717
v -0.061570 -0.757328 0.754689
v 0.174582 -0.333130 -0.165375
v 0.174582 -0.333130 0.169370
v -0.156559 -0.349413 0.237582
v -0.149732 -0.321166 0.258610
v -0.134929 -0.641618 0.684265
v -0.141757 -0.669864 0.663237
v -0.101289 -0.737612 0.802292
v -0.126217 -0.753701 0.770809
v -0.108117 -0.765859 0.781264
v -0.119389 -0.725454 0.791837
v -0.124573 -0.697505 0.755975
v -0.131400 -0.725751 0.734946
v 0.986226 -0.199485 0.129892
v 0.978432 -0.190507 0.053428
v 0.986226 -0.233725 0.078647
v 1.190467 -0.295404 0.091673
v 0.621788 -0.372797 -0.087678
v 1.190467 -0.295404 -0.087678
v 1.494572 -0.179202 0.080777
v 1.775756 -0.157289 0.113574
v 1.775756 -0.179202 0.080778
v 1.817762 -0.273876 0.144037
v 1.267505 -0.575723 0.393165
v 1.267505 -0.469396 0.274680
v 1.267505 -0.597638 0.360367
v 1.428377 -0.597638 0.360367
v 1.428377 -0.575723 0.393165
v 1.817762 -0.251963 0.176834
v 1.493001 -0.259989 0.182197
v 1.267505 -0.447483 0.307477
v 0.297371 -0.641586 -0.350833
v 0.764564 -0.190507 -0.049433
v 0.536279 -0.214652 -0.065565
v 1.494572 -0.157288 0.113574
v 0.255733 -0.564822 -0.373664
v 0.297371 -0.607347 -0.402076
v 1.493001 -0.281903 0.149400
v 0.536279 -0.180411 -0.116810
v 0.764564 -0.156267 -0.100677
v 1.775756 -0.157289 -0.109579
v 1.494572 -0.179202 -0.076782
v 1.775756 -0.179202 -0.076783
v 1.817762 -0.251963 -0.172839
v 1.817762 -0.273876 -0.140042
v 1.267505 -0.575723 -0.389168
v 1.267505 -0.469396 -0.270684
v 1.267505 -0.447483 -0.303479
v 1.428377 -0.597638 -0.356371
v 1.267505 -0.597638 -0.356371
v 1.428377 -0.575723 -0.389168
v 1.493001 -0.259989 -0.178202
v 1.493001 -0.281903 -0.145405
v 1.494572 -0.157288 -0.109579
v 0.322696 0.300146 0.118575
v 0.342933 0.322082 -0.114580
v 0.322696 0.300146 -0.114580
v 0.599984 0.057376 0.118575
v 0.342933 0.322082 0.118575
v 0.839926 0.060601 0.118575
v 1.755387 -0.210550 -0.073079
v 1.755770 -0.299026 -0.087678
v 1.755497 -0.235394 -0.120805
v 0.393529 -0.304970 0.091673
v 0.342972 -0.280348 0.043948
v 0.393423 -0.280128 0.043948
v 1.755665 -0.274184 -0.039953
v 0.393146 -0.216494 -0.073079
v 0.393423 -0.280127 -0.039953
v 0.393255 -0.241337 -0.120805
v 0.393529 -0.304970 -0.087678
v 1.755534 -0.245220 0.091672
v 1.755534 -0.245220 -0.087678
v 0.393292 -0.251164 -0.087678
v 0.343077 -0.305190 -0.087678
v 0.342839 -0.251384 -0.087678
v 0.393292 -0.251164 0.091672
v 1.755770 -0.299026 0.091673
v 1.755387 -0.210550 0.077074
v 1.755665 -0.274184 0.043948
v 0.342802 -0.241558 -0.120805
v 0.342694 -0.216713 -0.073079
v 0.393146 -0.216494 0.077075
v 0.393255 -0.241337 0.124800
v 1.755497 -0.235394 0.124800
v 1.703269 -0.030388 0.077075
v 0.046188 0.040478 0.043948
v 1.703547 0.033247 0.043948
v -0.528907 -0.030907 -0.104536
v 0.046056 0.011515 -0.087678
v 1.703374 -0.006322 -0.119309
v 0.142509 -0.030907 0.108531
v 0.045911 -0.023155 0.077075
v 0.046291 0.065319 0.091673
v 0.283810 0.061704 0.091673
v 1.724017 0.088528 -0.119367
v 1.389348 0.314004 0.123363
v 1.724017 0.088528 0.123363
v 1.298575 0.248298 -0.118825
v 1.141756 0.318427 -0.119367
v 1.474045 0.007668 0.123363
v 1.298863 0.247902 0.123905
v 1.144185 0.340713 0.123363
v 1.144185 0.340713 -0.119367
v 1.389348 0.314004 -0.119367
v 1.473438 -0.056184 -0.119367
v 1.474045 0.007668 -0.119367
v 1.702107 -0.057069 0.123363
v 1.389517 0.313834 0.123905
v 1.702107 -0.057069 -0.119367
v 1.473438 -0.056184 0.123363
v 1.243613 0.088528 -0.119367
v 0.908945 0.314004 0.123363
v 1.243613 0.088528 0.123363
v 0.661352 0.318427 -0.119367
v 0.663782 0.340713 0.123363
v 0.663782 0.340713 -0.119367
v 0.908945 0.314004 -0.119367
v 0.993034 -0.056184 -0.119367
v 0.993641 0.007668 0.123363
v 0.993641 0.007668 -0.119367
v 1.221704 -0.057069 -0.119367
v 0.993034 -0.056184 0.123363
v 1.703414 0.004283 -0.087678
v 0.046056 0.011515 0.091673
v 0.046291 0.065319 -0.087678
v 0.283810 0.061704 -0.087678
v 1.703414 0.004283 0.091673
v 0.045911 -0.023155 -0.073079
v 1.703545 0.033247 -0.039953
v 0.046188 0.040478 -0.039953
v 1.703269 -0.030388 -0.073078
v 0.142509 -0.030907 -0.104536
v 0.235487 0.064526 0.118575
v 0.235487 0.006406 -0.114580
v 0.235487 0.006406 0.118575
v 1.703936 0.064526 0.118575
v 0.235487 0.064526 -0.114580
v 1.703936 0.006405 0.118575
v 1.703936 0.006405 -0.114580
v 0.052835 0.258180 0.054999
v -0.754242 0.166366 0.108024
v 0.052835 0.166366 0.108024
v 0.052835 0.258193 -0.051026
v -0.754242 0.258180 0.054999
v 0.052835 0.166392 -0.104028
v -0.754242 0.258193 -0.051026
v -0.754242 0.166392 -0.104028
v -0.754242 0.074577 -0.051004
v -0.754242 0.074564 0.055021
v -0.829066 0.292731 -0.105612
v -0.859822 0.177140 0.109608
v -0.829066 0.292731 0.109608
v -0.890082 0.167311 -0.105612
v -0.859822 0.177140 -0.105613
v -0.915823 0.148609 0.109607
v -0.890082 0.167311 0.109607
v -0.915823 0.148609 -0.105612
v -0.934526 0.122868 0.109607
v -0.944355 0.092608 -0.105613
v -0.934526 0.122868 -0.105613
v -0.944355 0.060799 -0.105612
v -0.944355 0.092608 0.109607
v -0.934526 0.030539 -0.105612
v -0.944355 0.060799 0.109607
v -0.915823 0.004799 -0.105612
v -0.934526 0.030539 0.109607
v -0.890082 -0.013904 0.109607
v -0.915823 0.004799 0.109608
v -0.859822 -0.023734 -0.105613
v -0.890082 -0.013905 -0.105613
v -0.828012 -0.023734 -0.105613
v -0.859822 -0.023734 0.109608
v -0.361162 0.029622 -0.105613
v -0.549460 0.228179 0.109608
v -0.361162 0.029622 0.109608
v -0.549460 0.228179 -0.105613
v -0.216192 -0.712440 0.091675
v -0.485217 -0.712438 -0.087676
v -0.216192 -0.712440 -0.087676
v -0.969463 -0.481521 -0.087676
v -0.930006 -0.443413 0.091675
v -0.930006 -0.443413 -0.087676
v -0.772177 -0.443413 0.091675
v -0.969463 -0.481521 0.091675
v -0.969463 -0.748309 -0.087676
v -0.969463 -0.748309 0.091675
v -0.772177 -0.748309 0.091675
v -0.772177 -0.748309 -0.087676
v -0.772177 -0.443413 -0.087676
v -0.825983 0.004964 0.073738
v -0.825983 -0.461348 -0.069741
v -0.825983 0.004962 -0.069742
v -0.897723 0.004964 0.073738
v -0.897723 -0.461348 -0.069741
v -0.897723 -0.461348 0.073738
v -0.617442 -0.066299 -0.105613
v -0.828012 -0.023734 0.109608
v -0.825983 -0.461348 0.073738
v -0.897723 0.004962 -0.069742
v -0.708071 -0.515153 0.091675
v -0.485217 -0.712438 0.091675
v -0.073952 -0.515153 -0.087676
v 0.268455 -0.331943 0.091675
v 0.268455 -0.331943 -0.087678
v -0.073952 -0.515153 0.091675
v 0.430415 -0.227662 -0.200210
v 0.304339 -0.353737 0.204207
v 0.304339 -0.353739 -0.200210
v 0.430415 -0.049373 -0.200210
v 0.430415 -0.227662 0.204207
v 0.304339 0.076703 -0.200210
v 0.430415 -0.049373 0.204206
v 0.126050 0.076703 -0.200210
v 0.304339 0.076704 0.204206
v -0.000026 -0.049373 -0.200210
v 0.126050 0.076704 0.204206
v -0.000026 -0.227662 -0.200210
v -0.000026 -0.049373 0.204206
v 0.126050 -0.353739 -0.200210
v -0.000026 -0.227662 0.204207
v 0.126050 -0.353737 0.204207
v 0.306402 0.362791 0.074749
v 0.272264 0.328656 -0.070754
v 0.306402 0.362791 -0.070754
v 0.174772 0.428973 -0.070754
v 0.055940 0.466536 -0.070754
v 0.202657 0.466536 -0.070754
v 0.202657 0.466536 0.074749
v 0.174956 0.428778 0.074749
v 0.055940 0.466536 0.074749
v 0.055940 0.428778 -0.070754
v 0.055940 0.428778 0.074749
v 1.236539 -0.156267 0.104672
v 1.236539 -0.398852 0.192639
v 1.236539 -0.190507 0.053428
v 0.978432 -0.156267 0.104672
v 0.631682 -0.619275 0.414045
v 0.682147 -0.686892 0.385103
v 0.682147 -0.652651 0.436346
v 0.631682 -0.653515 0.362801
v 1.236539 -0.364612 0.243883
v 1.236539 -0.156267 -0.100677
v 1.236539 -0.398852 -0.188643
v 1.236539 -0.364612 -0.239888
v 0.978432 -0.190507 -0.049433
v 1.236539 -0.190507 -0.049433
v 0.631682 -0.619276 -0.410047
v 0.682147 -0.686892 -0.381106
v 0.631682 -0.653516 -0.358804
v 0.986226 -0.199485 -0.125728
v 0.986226 -0.233725 -0.074485
v 0.682147 -0.652652 -0.432348
v 0.764564 -0.156267 0.104672
v 0.764564 -0.398852 0.192639
v 0.764564 -0.190507 0.053428
v 0.530055 -0.190507 0.053428
v 0.530055 -0.156267 0.104672
v 0.536279 -0.180411 0.120805
v 0.255733 -0.599063 0.326418
v 0.255733 -0.564822 0.377661
v 0.297371 -0.641586 0.354830
v 0.536279 -0.214652 0.069560
v 0.764564 -0.364612 0.243883
v 0.297371 -0.607346 0.406075
v 0.764564 -0.398852 -0.188643
v 0.764564 -0.364612 -0.239888
v 0.530055 -0.190507 -0.049433
v 0.530055 -0.156267 -0.100677
v 0.255733 -0.599063 -0.322419
v -0.708071 -0.515153 -0.087676
v 0.624134 0.056821 -0.105613
v 0.321527 0.306227 0.109607
v 0.321527 0.306227 0.161121
v 0.462256 0.164054 0.109087
v 0.462256 0.164054 -0.157125
v 0.321084 0.306654 -0.105613
v 0.462256 0.164054 -0.105613
v 0.612114 -0.301712 -0.087678
v 0.298828 -0.453759 -0.087676
v 0.298828 -0.453759 0.091675
v 0.612114 -0.301712 0.091673
v 0.621788 -0.372797 0.091675
v 0.599984 0.057376 -0.114580
v 0.241213 -0.311447 -0.053424
v 0.818460 0.247902 0.123905
v 1.221704 -0.057069 0.123363
v 0.909114 0.313834 0.123905
v 0.818172 0.248298 -0.118825
v 0.661352 0.318427 0.123363
v 1.141756 0.318427 0.123363
v -0.790113 -0.622764 0.035499
v -0.574891 -0.533088 0.035497
v -0.574891 -0.622764 0.035499
v -0.574891 -0.533088 -0.033037
v -0.790113 -0.622764 -0.033037
v -0.574891 -0.622764 -0.033037
v -0.790113 -0.533088 -0.033037
v -0.790113 -0.533088 0.035497
v 0.343077 -0.305190 0.091673
v 0.342802 -0.241558 0.124800
v 0.342972 -0.280348 -0.039953
v 0.342839 -0.251384 0.091672
v 0.342694 -0.216713 0.077075
v -0.124573 -0.697505 -0.751977
v 0.248041 -0.283200 0.078447
v 0.167755 -0.361376 0.148343
v 0.839926 0.060601 -0.114580
v 1.703373 -0.006322 0.123306
v 1.703648 0.058088 0.091673
v 1.703648 0.058088 -0.087678
v 1.703936 0.064526 -0.114580
v -0.617442 -0.066299 0.109608
v -0.528907 -0.030907 0.108531
v 0.272264 0.328656 0.074749
v 0.978432 -0.156267 -0.100677
vn -0.2509 0.2512 0.9349
vn -0.2613 0.9123 -0.3152
vn 0.1571 0.9635 -0.2167
vn -0.8638 0.3780 -0.3333
vn -0.8638 0.3779 -0.3333
vn -0.8104 -0.5827 -0.0609
vn -0.7343 -0.6786 -0.0147
vn -0.4743 -0.8738 0.1075
vn -0.0000 -0.0000 1.0000
vn 0.6765 0.7362 -0.0162
vn 0.4370 0.8911 -0.1221
vn 0.2509 -0.2512 -0.9349
vn 0.1571 0.9635 0.2167
vn -0.4743 -0.8738 -0.1075
vn -0.7343 -0.6787 0.0147
vn -0.7343 -0.6786 0.0147
vn -0.8104 -0.5828 0.0609
vn -0.8638 0.3779 0.3333
vn -0.8638 0.3780 0.3333
vn -0.2613 0.9123 0.3152
vn 0.2509 -0.2512 0.9349
vn 0.4370 0.8911 0.1221
vn 0.4370 0.8911 0.1222
vn 0.6765 0.7362 0.0162
vn -0.2509 0.2511 0.9349
vn -0.8637 0.3780 -0.3333
vn 0.4370 0.8911 -0.1222
vn 0.2509 -0.2511 -0.9349
vn -0.8637 0.3780 0.3333
vn 0.2509 -0.2511 0.9349
vn 0.2508 -0.2512 0.9349
vn 0.7682 0.6402 -0.0000
vn -0.7079 -0.7063 -0.0000
vn -0.0000 1.0000 -0.0000
vn -0.0048 1.0000 -0.0066
vn -0.0005 1.0000 -0.0007
vn -0.0047 1.0000 0.0066
vn -0.0005 1.0000 0.0007
vn -0.0052 1.0000 0.0073
vn 0.9196 -0.3520 -0.1742
vn 0.9196 -0.3520 -0.1743
vn -0.1879 0.6153 0.7655
vn -0.1880 0.6153 0.7655
vn -0.1880 0.6153 0.7656
vn -0.9813 0.1357 -0.1363
vn -0.6352 -0.3565 -0.6851
vn -0.6352 -0.3565 -0.6852
vn -0.9752 0.0828 -0.2054
vn 0.9752 -0.0828 0.2054
vn 0.4777 -0.5960 -0.6455
vn -0.1904 -0.7875 0.5862
vn 0.9196 -0.3520 0.1742
vn 0.1904 0.7875 -0.5862
vn 0.1903 0.7875 -0.5862
vn -0.1880 0.6153 -0.7655
vn -0.9813 0.1357 0.1363
vn -0.6352 -0.3565 0.6851
vn -0.9752 0.0828 0.2054
vn 0.4777 -0.5960 0.6454
vn -0.1904 -0.7875 -0.5862
vn 0.1904 0.7875 0.5862
vn 0.1903 0.7875 0.5862
vn -0.9880 -0.1282 0.0857
vn 0.1349 -0.9909 -0.0000
vn -0.0000 0.8315 -0.5556
vn 0.9382 0.2878 -0.1923
vn -1.0000 -0.0000 -0.0000
vn -0.0000 -0.8315 0.5556
vn 0.7071 -0.5879 0.3928
vn -0.7071 0.5879 -0.3928
vn -0.0000 -0.5556 0.8315
vn -0.9999 0.0106 -0.0071
vn -0.7755 -0.5250 -0.3508
vn -0.0000 0.5556 0.8315
vn -0.0000 -0.5556 -0.8315
vn -0.0000 0.5556 -0.8315
vn -0.0000 0.8315 0.5556
vn 0.9382 0.2878 0.1923
vn -0.0000 -0.8315 -0.5556
vn 0.7071 -0.5879 -0.3928
vn 0.7071 -0.5879 -0.3929
vn -0.7071 0.5879 0.3928
vn -0.9999 0.0106 0.0071
vn -0.7350 0.6781 -0.0000
vn 0.4656 0.8850 -0.0000
vn 1.0000 0.0043 -0.0000
vn 0.0039 -0.8870 -0.4617
vn -0.0020 0.4617 0.8870
vn -0.0020 0.4618 0.8870
vn 0.0020 -0.4618 -0.8870
vn -0.0039 0.8870 -0.4617
vn -0.0039 0.8870 -0.4618
vn 0.0039 -0.8870 0.4617
vn 1.0000 0.0044 -0.0000
vn -0.0000 -0.0000 -1.0000
vn -0.0044 1.0000 -0.0000
vn 0.0044 -1.0000 -0.0000
vn -0.0020 0.4617 -0.8870
vn 0.0020 -0.4618 0.8870
vn -0.0039 0.8870 0.4617
vn -0.0020 -0.4617 -0.8870
vn -0.0112 0.4968 -0.8678
vn -0.0042 -0.9739 -0.2269
vn 0.0151 0.9898 -0.1420
vn 0.5587 0.8293 -0.0000
vn -0.0260 -0.0658 -0.9975
vn -0.8080 -0.5892 -0.0000
vn -0.9941 0.1083 -0.0000
vn -0.9941 0.1084 -0.0000
vn 0.1083 0.9941 -0.0000
vn -1.0000 0.0095 -0.0000
vn -0.0004 -0.0018 1.0000
vn -0.0005 -0.0014 1.0000
vn 0.0003 0.0023 1.0000
vn -0.0039 -1.0000 -0.0000
vn 0.9889 -0.1488 -0.0000
vn -0.0044 -1.0000 -0.0000
vn -0.0020 -0.4618 0.8870
vn 0.0096 -0.8870 -0.4617
vn 0.0151 0.9898 0.1420
vn -0.0000 -1.0000 -0.0000
vn -0.0000 0.5001 0.8660
vn -0.0000 1.0000 0.0001
vn -0.0000 0.5000 -0.8660
vn -0.0000 -0.1597 -0.9872
vn -0.0116 -0.9999 -0.0000
vn -0.0115 -0.9999 -0.0001
vn -0.0454 -0.4995 0.8651
vn -0.9664 0.2571 -0.0000
vn -0.3089 0.9511 -0.0000
vn -0.5878 0.8090 -0.0000
vn -0.8090 0.5878 -0.0000
vn -0.9511 0.3089 -0.0000
vn -0.9511 -0.3089 -0.0000
vn -0.8090 -0.5878 -0.0000
vn -0.5878 -0.8090 -0.0000
vn -0.3089 -0.9511 -0.0000
vn 0.7256 0.6881 -0.0000
vn 0.6480 0.7617 0.0001
vn 0.2767 0.4806 0.8322
vn -0.0012 -0.1597 0.9872
vn -0.0024 -0.1596 0.9872
vn -0.0019 -0.1596 0.9872
vn -0.0148 0.3399 0.9403
vn -0.0166 0.3364 0.9416
vn -0.0160 0.3376 0.9412
vn 0.2250 0.9744 -0.0000
vn -0.6947 0.7193 -0.0000
vn 1.0000 -0.0000 -0.0000
vn -0.1981 -0.9802 -0.0000
vn -0.6628 -0.7488 -0.0000
vn -0.4718 0.8817 -0.0000
vn 0.7071 -0.7071 -0.0000
vn 0.7071 0.7071 -0.0000
vn -0.7071 0.7071 -0.0000
vn -0.7071 -0.7071 -0.0000
vn -0.7171 -0.6969 -0.0000
vn 0.0001 -1.0000 -0.0013
vn 0.0016 -1.0000 -0.0001
vn 0.0016 -1.0000 -0.0000
vn -0.6225 -0.6507 0.4348
vn -0.8195 0.4766 -0.3184
vn 0.5299 -0.7051 0.4711
vn 0.5299 -0.7051 0.4712
vn -0.6225 -0.6507 -0.4348
vn -0.8195 0.4765 0.3184
vn 0.5299 -0.7051 -0.4711
vn 0.5299 -0.7051 -0.4712
vn -0.8549 0.4313 -0.2882
vn -0.7755 -0.5250 0.3508
vn -0.9778 -0.1743 0.1164
vn -0.9778 -0.1743 -0.1164
vn -0.8549 0.4313 0.2882
vn 0.3505 -0.9365 -0.0000
vn 0.6945 0.7195 -0.0000
vn 0.6944 0.7196 -0.0000
vn 0.7107 0.7035 -0.0000
vn -0.0175 -0.0312 -0.9994
vn 0.2432 -0.9700 -0.0000
vn -0.6587 -0.7524 -0.0000
vn -0.7936 0.4750 0.3803
vn 0.4488 -0.8936 -0.0000
vn -0.0005 -0.0016 1.0000
vn -0.4094 -0.9123 -0.0009
vn -0.4090 -0.9125 -0.0006
vn -0.4082 -0.9129 -0.0000
vn -0.4095 -0.9123 -0.0010
vn -0.0876 0.9962 -0.0000
vn -0.0149 0.5670 0.8236
vn 0.0149 -0.5670 -0.8236
vn -0.9880 -0.1284 -0.0858
vn -0.0156 0.5675 -0.8232
vn 0.0156 -0.5675 0.8232
vn -0.0043 1.0000 -0.0000
vn 0.2767 0.4805 -0.8322
vn -0.0024 -0.1595 -0.9872
vn -0.0052 1.0000 -0.0073
vn -0.1903 -0.7875 0.5862
vn 0.0270 0.7903 0.6121
vn 0.7071 -0.5879 0.3929
vn -0.7071 0.5879 0.3929
vn -0.0020 -0.4618 -0.8870
vn -0.0000 -0.5151 -0.8572
vn -0.0377 0.3870 -0.9213
vn 0.0041 0.9481 -0.3179
vn 0.0293 -0.0001 -0.9996
vn 0.0096 -0.8870 0.4617
vn 0.0023 0.8870 -0.4617
vn 0.0039 0.8870 -0.4617
vn -0.0002 0.0007 -1.0000
vn -0.0003 0.0009 -1.0000
vn -0.0006 0.0018 -1.0000
vn -0.0033 0.0004 1.0000
vn -0.0001 -0.0004 1.0000
vn -0.0019 0.0026 1.0000
vn 0.0015 -0.0002 1.0000
vn -0.0020 -0.4617 0.8870
vn -0.0043 -0.9739 0.2269
vn 0.0039 0.8870 0.4617
vn 0.0023 0.8870 0.4617
vn -0.0454 -0.4996 -0.8651
vn -0.0000 -0.1597 0.9872
vn 0.6479 0.7617 -0.0000
vn -0.0000 0.0001 1.0000
vn 0.0001 0.0001 1.0000
vn -0.0001 -0.0000 -1.0000
vn 0.0001 -0.0000 -1.0000
vn -0.0000 0.0001 -1.0000
vn 0.0041 0.9481 0.3179
vn -0.0457 0.0002 0.9990
vn -0.0000 0.4524 0.8918
vn -0.0143 0.3411 0.9399
vn -0.7171 -0.6970 -0.0000
vn -0.0000 -1.0000 -0.0013
vn 0.0072 0.0060 -1.0000
vn -0.0000 0.0036 -1.0000
vn -0.6256 -0.7774 0.0655
vn 0.0031 0.5588 0.8293
vn -0.0000 0.5040 0.8637
vn -0.0000 -0.5040 -0.8637
vn -0.0031 -0.5588 -0.8293
vn 0.0032 0.5589 -0.8292
vn -0.0000 0.5015 -0.8652
vn -0.0000 -0.5015 0.8652
vn -0.0032 -0.5589 0.8292
vn -0.0039 0.8870 0.4618
vn -0.2509 0.2512 -0.9349
vn -0.2509 0.2511 -0.9349
vn -0.2508 0.2512 -0.9349
vt 0.000000 0.000000
vt 0.000000 0.500000
vt 0.000000 1.000000
vt 1.000000 0.500000
vt 1.000000 1.000000
vt 0.453125 0.984375
vt 0.484375 0.953125
vt 0.453125 0.953125
vt 0.828125 0.953125
vt 0.828125 0.984375
vt 0.859375 0.953125
vt 0.140625 0.984375
vt 0.171875 0.953125
vt 0.140625 0.953125
vt 0.484375 0.984375
vt 0.109375 0.953125
vt 0.109375 0.984375
vt 0.859375 0.984375
vt 0.171875 0.984375
vt 0.203125 0.984375
vt 0.234375 0.953125
vt 0.203125 0.953125
vt 0.078125 0.984375
vt 0.078125 0.953125
vt 0.234375 0.984375
vt 0.015625 0.984375
vt 0.046875 0.953125
vt 0.046875 0.984375
vt 0.015625 0.953125
vt 0.359375 0.953125
vt 0.359375 0.984375
vt 0.265625 0.953125
vt 0.296875 0.984375
vt 0.296875 0.953125
vt 0.328125 0.953125
vt 0.265625 0.984375
vt 0.328125 0.984375
vt 0.343750 0.953125
vt 0.296875 0.968750
vt 0.577350 0.500000
vt 0.577350 1.000000
vt 0.158387 0.500000
vt 0.158387 1.000000
vt 0.390625 0.890625
vt 0.234375 0.921875
vt 0.234375 0.890625
vt 0.203125 0.921875
vt 0.390625 0.921875
vt 0.421875 0.890625
vt 0.421875 0.921875
vt 0.515625 0.921875
vt 0.546875 0.890625
vt 0.546875 0.921875
vt 0.203125 0.890625
vt 0.984375 0.953125
vt 0.953125 0.984375
vt 0.984375 0.984375
vt 0.703125 0.921875
vt 0.734375 0.890625
vt 0.734375 0.921875
vt 0.765625 0.921875
vt 0.796875 0.890625
vt 0.796875 0.921875
vt 0.890625 0.921875
vt 0.921875 0.890625
vt 0.921875 0.921875
vt 0.953125 0.921875
vt 0.984375 0.890625
vt 0.984375 0.921875
vt 0.015625 0.859375
vt 0.046875 0.828125
vt 0.046875 0.859375
vt 0.640625 0.984375
vt 0.671875 0.953125
vt 0.671875 0.984375
vt 0.414212 0.875000
vt 0.000000 0.875000
vt 0.158513 0.617316
vt 0.382684 0.617317
vt 0.382683 1.000000
vt 0.640625 0.953125
vt 0.515625 0.890625
vt 0.953125 0.953125
vt 0.703125 0.890625
vt 0.765625 0.890625
vt 0.890625 0.890625
vt 0.953125 0.890625
vt 0.015625 0.828125
vt 0.414212 1.000000
vt 0.000000 0.841487
vt 0.000000 0.585787
vt 0.414212 0.500000
vt 0.500000 1.000000
s 1
usemtl none
f 1/1/1 2/1/1 3/1/1
f 4/1/2 5/1/2 6/1/2
f 7/1/3 8/1/3 5/1/3
f 1/1/4 6/1/5 9/1/5
f 1/1/6 10/1/6 11/1/6
f 10/1/7 12/1/7 11/1/7
f 13/1/8 14/1/8 12/1/8
s 0
f 15/2/9 16/3/9 17/4/9
f 18/3/9 15/4/9 16/5/9
s 1
f 19/1/10 20/1/10 21/1/10
f 21/1/11 3/1/11 19/1/11
f 5/1/12 22/1/12 10/1/12
f 23/1/13 24/1/13 25/1/13
f 26/1/14 27/1/14 28/1/14
f 29/1/15 30/1/16 26/1/16
f 31/1/17 29/1/17 32/1/17
f 33/1/18 31/1/19 32/1/18
f 25/1/20 34/1/20 33/1/20
f 35/1/21 32/1/21 26/1/21
f 35/1/22 36/1/22 23/1/23
f 35/1/24 15/4/24 18/1/24
f 7/1/25 4/1/1 1/1/1
f 1/1/1 11/1/25 12/1/1
f 12/1/1 14/1/1 2/1/1
f 2/1/1 19/1/25 3/1/1
f 3/1/1 7/1/25 1/1/1
f 1/1/1 12/1/1 2/1/1
f 4/1/2 7/1/2 5/1/2
f 7/1/3 3/1/3 8/1/3
f 1/1/4 4/1/26 6/1/5
f 1/1/6 9/1/6 10/1/6
f 10/1/7 13/1/7 12/1/7
f 13/1/8 22/1/8 14/1/8
f 19/1/10 2/1/10 20/1/10
f 21/1/11 8/1/27 3/1/11
f 9/1/12 6/1/12 5/1/12
f 5/1/12 8/1/12 21/1/12
f 21/1/12 20/1/12 22/1/12
f 22/1/12 13/1/28 10/1/12
f 10/1/12 9/1/12 5/1/12
f 5/1/12 21/1/12 22/1/12
f 23/1/13 36/1/13 24/1/13
f 26/1/14 30/1/14 27/1/14
f 29/1/15 37/1/15 30/1/16
f 31/1/17 37/1/17 29/1/17
f 33/1/18 34/1/29 31/1/19
f 25/1/20 24/1/20 34/1/20
f 28/1/21 17/1/21 35/1/21
f 35/1/21 23/1/21 25/1/30
f 25/1/30 33/1/21 32/1/21
f 32/1/21 29/1/31 26/1/21
f 26/1/21 28/1/21 35/1/21
f 35/1/21 25/1/30 32/1/21
f 35/1/22 18/1/22 36/1/22
f 35/1/24 17/4/24 15/4/24
f 38/6/32 39/7/32 40/8/32
f 41/1/33 42/9/33 43/1/33
f 44/10/34 45/11/34 42/9/34
f 40/12/35 46/13/36 38/14/34
f 47/6/32 48/7/32 49/15/32
f 50/9/33 51/16/33 52/17/33
f 53/10/34 54/11/34 55/18/34
f 56/12/37 57/13/38 58/19/39
f 59/20/40 60/21/41 61/22/41
f 62/14/42 63/19/43 64/13/44
f 63/12/45 65/13/45 64/14/45
f 66/23/46 67/16/46 68/24/47
f 65/14/48 66/19/48 68/13/48
f 69/13/49 70/12/49 65/14/49
f 60/21/50 71/17/50 61/22/50
f 62/14/51 65/14/51 67/16/51
f 72/25/52 73/22/52 74/21/52
f 71/17/53 70/12/53 75/12/54
f 76/12/55 77/13/55 78/19/55
f 79/19/56 77/14/56 80/13/56
f 81/17/57 82/24/57 83/16/57
f 79/12/58 82/13/58 84/19/58
f 74/21/59 81/17/59 83/16/59
f 85/19/58 80/14/58 86/13/58
f 74/21/60 86/13/60 77/13/60
f 76/12/61 84/23/62 73/22/62
f 87/12/63 88/13/63 89/14/63
f 90/20/64 91/21/64 92/25/64
f 93/25/65 94/22/65 95/21/65
f 94/20/66 96/21/66 95/25/66
f 97/26/67 98/27/67 99/28/67
f 97/12/68 100/13/68 101/19/68
f 102/20/69 100/21/69 96/25/69
f 103/12/70 98/13/70 104/19/70
f 105/21/71 106/14/71 107/14/71
f 93/25/72 103/12/72 108/20/72
f 105/21/73 109/19/73 110/22/73
f 103/12/74 97/26/74 102/20/74
f 100/21/75 111/14/75 95/21/75
f 112/12/76 113/12/76 110/22/76
f 114/22/77 115/25/77 116/21/77
f 117/22/78 116/25/78 118/21/78
f 119/26/67 120/27/67 121/29/67
f 119/12/79 122/13/79 123/14/79
f 117/20/80 122/21/81 124/22/81
f 125/12/82 120/13/82 126/14/82
f 127/20/83 126/14/83 115/25/83
f 116/21/71 126/14/71 123/14/71
f 124/22/76 125/12/76 114/22/76
f 128/1/84 129/13/84 130/1/84
f 131/1/9 132/19/9 128/1/9
f 133/12/85 129/13/85 132/19/85
f 134/26/86 135/27/86 136/29/86
f 137/30/87 138/31/87 139/31/87
f 140/14/88 141/19/89 142/13/89
f 143/22/90 135/25/90 144/21/90
f 141/32/91 136/33/92 143/34/91
f 135/35/93 142/31/93 144/30/93
f 145/26/94 135/27/94 146/28/94
f 147/31/95 148/30/95 149/31/95
f 145/12/96 147/13/96 150/19/96
f 151/20/97 144/21/97 135/25/97
f 145/36/9 137/34/9 151/33/9
f 146/37/95 144/30/95 147/31/95
f 152/26/86 151/27/86 153/28/86
f 141/32/91 154/34/92 155/32/92
f 152/12/98 139/13/98 156/19/98
f 151/25/99 157/22/99 137/21/99
f 158/33/100 156/32/100 157/34/100
f 139/31/87 151/35/87 137/30/87
f 159/12/101 160/13/101 161/14/101
f 162/1/102 163/1/102 164/1/102
f 159/36/103 165/34/103 166/32/103
f 161/37/104 167/30/104 168/38/104
f 169/37/105 170/30/105 171/35/105
f 169/37/106 172/1/106 173/23/106
f 172/32/107 174/33/107 175/34/107
f 173/23/108 176/16/109 177/24/108
f 178/37/110 176/30/110 170/35/110
f 179/23/111 174/16/111 180/24/111
f 175/34/112 181/33/113 182/1/114
f 183/36/115 184/34/115 179/32/115
f 185/37/105 186/30/105 187/35/105
f 188/23/109 189/16/109 190/24/109
f 191/37/110 189/30/110 186/35/110
f 192/23/111 193/16/111 194/24/111
f 195/36/115 196/34/115 192/32/115
f 171/1/116 183/1/116 169/37/116
f 197/12/117 198/13/117 163/19/117
f 197/36/95 199/34/95 200/39/95
f 201/37/9 168/38/9 167/30/9
f 202/19/118 203/14/118 204/13/118
f 205/36/119 206/34/119 164/33/119
f 203/37/120 200/38/120 199/30/120
f 207/23/67 208/16/67 209/17/67
f 210/12/34 211/13/34 207/19/34
f 212/20/121 208/21/121 213/25/121
f 210/36/9 209/34/9 212/33/9
f 211/31/95 213/35/95 208/30/95
f 214/40/122 215/3/122 216/2/122
f 217/40/123 218/3/123 214/2/123
f 219/40/124 220/3/124 217/2/124
f 199/40/125 221/3/125 219/2/125
f 167/40/126 222/3/127 199/2/126
f 167/2/128 215/41/128 223/3/128
f 224/24/129 225/3/129 226/23/129
f 227/42/130 225/3/130 228/2/130
f 227/2/131 229/43/131 230/3/131
f 231/2/132 232/43/132 229/3/132
f 233/42/133 232/3/133 234/2/133
f 235/42/67 236/3/67 233/2/67
f 237/42/134 238/3/134 235/2/134
f 239/42/135 240/3/135 237/2/135
f 239/2/136 241/43/136 242/3/136
f 243/42/137 241/3/137 244/2/137
f 245/42/121 246/3/121 243/2/121
f 247/1/138 248/1/138 249/1/138
f 214/20/139 200/21/139 217/25/139
f 216/2/140 168/22/140 214/20/140
f 167/2/141 168/22/142 216/2/143
f 236/3/9 241/3/9 249/1/9
f 237/2/95 231/2/95 250/1/95
f 198/1/144 223/1/145 165/1/146
f 224/24/147 248/1/147 250/1/147
f 251/20/121 252/21/121 253/25/121
f 254/44/148 255/45/148 256/46/148
f 257/47/34 256/46/34 255/45/34
f 258/48/67 259/49/67 260/50/67
f 261/51/121 259/52/121 262/53/121
f 255/45/9 260/50/9 261/51/9
f 254/44/95 263/54/95 262/55/95
f 257/56/149 262/55/149 263/57/149
f 264/58/149 265/59/149 266/60/149
f 267/61/67 268/62/67 269/63/67
f 270/1/150 271/43/150 245/42/150
f 272/64/121 268/65/121 265/66/121
f 264/67/9 269/68/9 272/69/9
f 266/70/95 268/71/95 273/72/95
f 274/73/151 252/74/151 275/75/151
f 276/7/152 277/23/152 278/24/152
f 279/1/9 275/1/9 251/1/9
f 280/76/153 281/3/153 282/77/153
f 283/76/149 284/3/149 280/77/149
f 285/76/154 286/3/154 283/77/154
f 287/76/34 288/3/34 285/77/34
f 289/76/155 290/3/155 287/77/155
f 287/78/95 283/79/95 282/80/95
f 291/76/67 292/3/67 289/77/67
f 293/76/156 294/3/156 291/77/156
f 288/3/9 292/3/9 295/3/9
f 282/76/121 295/3/121 293/77/121
f 296/26/153 297/27/153 298/29/153
f 299/30/95 300/17/95 301/33/95
f 296/36/154 301/34/154 302/32/154
f 297/35/157 303/31/157 299/30/157
f 304/23/67 305/16/67 306/24/67
f 303/37/9 302/36/9 306/31/9
f 302/36/34 300/34/34 304/32/34
f 299/35/158 306/31/159 305/30/160
f 307/26/149 308/27/149 309/28/149
f 307/12/65 88/13/65 310/19/65
f 311/23/161 312/16/161 313/17/161
f 87/12/162 314/13/162 311/19/162
f 315/20/163 312/21/164 308/25/163
f 316/26/149 317/27/149 318/29/149
f 316/12/77 319/13/77 320/14/77
f 321/23/165 322/16/165 323/24/165
f 324/12/166 323/13/166 325/14/166
f 318/20/167 322/21/168 326/22/168
f 327/26/149 328/27/149 329/28/149
f 327/12/65 330/13/65 331/19/65
f 332/12/169 333/13/169 334/19/169
f 335/21/75 336/14/75 329/14/75
f 337/20/163 335/21/163 328/25/163
f 335/21/170 334/19/170 333/13/170
f 327/12/74 332/12/74 338/22/74
f 330/13/171 332/12/171 331/19/171
f 113/26/149 339/27/149 340/29/149
f 113/12/77 341/13/77 106/14/77
f 112/12/172 341/13/172 342/19/172
f 112/12/173 343/13/173 107/14/173
f 340/20/167 105/21/167 110/22/167
f 249/1/174 270/1/174 247/1/174
f 344/81/34 279/15/34 276/7/34
f 345/15/121 43/1/121 39/7/121
f 346/1/175 54/11/176 347/1/176
f 58/19/9 50/9/9 48/7/9
f 346/1/177 58/1/177 348/1/177
f 349/17/177 350/18/177 351/1/177
f 351/1/9 44/10/9 345/15/9
f 49/15/178 53/10/178 348/1/178
f 39/7/95 42/9/95 349/19/95
f 352/1/95 353/1/95 278/1/95
f 354/17/9 355/32/9 277/23/9
f 353/1/179 356/1/179 354/1/179
f 353/1/95 252/1/95 276/1/95
f 357/1/180 128/1/180 130/1/180
f 129/13/95 357/1/95 130/1/95
f 75/12/181 358/27/181 59/29/181
f 353/16/182 251/20/182 253/25/182
f 359/1/183 360/33/113 361/1/114
f 185/37/106 362/1/106 188/23/106
f 362/1/184 363/17/185 188/23/186
f 362/1/107 193/1/107 359/1/107
f 185/37/116 360/33/116 195/36/116
f 364/17/185 172/1/184 175/34/187
s 0
f 371/1/9 370/1/9 368/1/9
f 370/1/34 365/1/34 367/1/34
s 1
f 277/23/188 352/1/188 278/24/188
f 356/34/9 90/20/9 355/32/9
f 91/1/95 352/1/95 92/25/95
f 87/12/189 313/17/189 307/26/189
f 89/14/190 309/28/190 312/16/190
f 319/13/191 324/12/191 325/14/191
f 326/22/192 324/12/192 316/12/192
f 320/14/193 325/14/193 322/21/193
f 144/21/90 154/22/90 143/22/90
f 150/32/9 373/34/9 137/34/9
f 156/32/100 374/34/100 157/34/100
f 144/30/93 375/31/93 148/30/93
f 147/13/96 376/19/194 150/19/96
f 141/19/89 375/13/89 142/13/89
f 156/19/98 138/13/98 377/19/98
f 137/22/97 148/21/97 144/21/97
f 137/21/99 374/22/99 373/21/99
f 217/25/195 200/21/195 219/2/195
f 200/21/196 199/1/196 219/2/196
f 38/6/32 345/15/32 39/7/32
f 41/1/33 44/10/33 42/9/33
f 44/10/34 350/18/34 45/11/34
f 40/12/35 349/19/197 46/13/36
f 47/6/32 56/8/32 48/7/32
f 50/9/33 53/10/33 51/16/33
f 53/10/34 50/9/34 54/11/34
f 56/12/37 47/14/34 57/13/38
f 59/20/40 358/25/40 60/21/41
f 62/14/42 75/12/42 63/19/43
f 63/12/45 70/19/45 65/13/45
f 66/23/46 71/17/46 67/16/46
f 65/14/48 70/12/48 66/19/48
f 69/13/49 378/19/49 70/12/49
f 60/21/50 67/16/50 71/17/50
f 67/16/51 60/21/198 358/27/51
f 62/14/51 64/14/51 65/14/51
f 67/16/51 358/27/51 62/14/51
f 65/14/51 68/24/51 67/16/51
f 72/25/52 379/20/52 73/22/52
f 59/29/54 61/22/54 71/17/53
f 71/17/53 66/23/53 70/12/53
f 70/12/53 63/12/53 75/12/54
f 75/12/54 59/29/54 71/17/53
f 76/12/55 380/14/55 77/13/55
f 79/19/56 78/12/56 77/14/56
f 81/17/57 84/23/57 82/24/57
f 79/12/58 80/14/58 82/13/58
f 74/21/59 73/22/59 81/17/59
f 85/19/58 79/12/58 80/14/58
f 380/14/60 72/25/60 74/21/60
f 74/21/60 82/1/60 86/13/60
f 86/13/60 80/13/60 77/13/60
f 77/13/60 380/14/60 74/21/60
f 76/12/61 78/12/61 79/12/61
f 79/12/199 85/19/199 84/23/199
f 84/23/62 81/17/62 73/22/62
f 73/22/62 379/20/62 76/12/62
f 76/12/61 79/12/61 84/23/62
f 87/12/63 310/19/63 88/13/63
f 90/20/64 356/22/64 91/21/64
f 93/25/65 108/20/65 94/22/65
f 94/20/66 102/22/66 96/21/66
f 97/26/67 104/29/67 98/27/67
f 97/12/68 99/14/68 100/13/68
f 102/20/69 101/22/200 100/21/69
f 103/12/70 111/14/70 98/13/70
f 107/14/71 343/13/71 105/21/71
f 105/21/71 339/27/71 106/14/71
f 106/14/71 341/13/71 107/14/71
f 93/25/72 111/14/72 103/12/72
f 105/21/73 343/13/73 109/19/73
f 94/20/74 108/20/74 103/12/74
f 103/12/74 104/19/74 97/26/74
f 97/26/74 101/19/74 102/20/74
f 102/20/74 94/20/74 103/12/74
f 95/21/75 96/25/75 100/21/75
f 100/21/75 99/14/75 98/27/75
f 111/14/75 93/25/75 95/21/75
f 100/21/75 98/27/75 111/14/75
f 110/22/76 109/19/76 112/12/76
f 112/12/76 342/19/76 113/12/76
f 113/12/76 340/29/76 110/22/76
f 114/22/77 127/20/77 115/25/77
f 117/22/78 114/20/78 116/25/78
f 119/26/67 123/28/67 120/27/67
f 119/12/79 124/19/79 122/13/79
f 117/20/80 118/25/80 122/21/81
f 125/12/82 121/19/201 120/13/82
f 127/20/83 125/12/83 126/14/83
f 122/21/71 118/25/71 116/21/71
f 116/21/71 115/25/71 126/14/71
f 126/14/71 120/27/71 123/14/71
f 123/14/71 122/21/71 116/21/71
f 114/22/76 117/20/76 124/22/76
f 124/22/76 119/12/76 121/29/76
f 125/12/76 127/20/76 114/22/76
f 124/22/76 121/29/76 125/12/76
f 128/1/84 132/19/84 129/13/84
f 131/1/9 133/12/9 132/19/9
f 133/12/85 381/14/85 129/13/85
f 134/26/86 140/28/86 135/27/86
f 137/30/87 373/30/87 138/31/87
f 140/14/88 134/12/88 141/19/89
f 143/22/90 136/20/90 135/25/90
f 141/32/91 134/36/92 136/33/92
f 135/35/93 140/37/93 142/31/93
f 145/26/94 151/29/94 135/27/94
f 147/31/95 144/30/95 148/30/95
f 145/12/96 146/14/96 147/13/96
f 151/20/97 137/22/97 144/21/97
f 145/36/9 150/32/9 137/34/9
f 146/37/95 135/35/95 144/30/95
f 152/26/86 158/29/86 151/27/86
f 141/32/91 143/34/91 154/34/92
f 152/12/98 153/14/98 139/13/98
f 151/25/99 158/20/99 157/22/99
f 158/33/100 152/36/100 156/32/100
f 139/31/87 153/37/87 151/35/87
f 159/12/202 166/19/202 160/13/202
f 164/1/203 206/1/203 162/1/203
f 162/1/204 222/1/204 199/1/204
f 163/1/205 197/1/205 164/1/205
f 162/1/206 199/1/206 163/1/206
f 159/36/207 382/33/207 165/34/207
f 168/38/208 383/35/208 161/37/208
f 161/37/209 160/31/209 167/30/209
f 169/37/105 178/31/105 170/30/105
f 177/31/95 178/37/95 169/37/95
f 169/37/210 183/36/95 179/23/95
f 169/37/210 179/23/95 180/36/211
f 173/23/95 177/31/95 169/37/95
f 169/37/210 180/36/211 172/1/212
f 172/32/107 180/36/107 174/33/107
f 173/23/108 364/17/109 176/16/109
f 178/37/110 177/31/110 176/30/110
f 179/23/111 184/17/111 174/16/111
f 176/16/213 364/17/213 175/34/213
f 174/33/214 184/17/9 181/33/113
f 182/1/114 176/16/215 175/34/112
f 175/34/112 174/33/214 181/33/113
f 181/33/113 171/1/216 182/1/114
f 183/36/115 181/33/115 184/34/115
f 185/37/105 191/31/105 186/30/105
f 188/23/109 363/17/109 189/16/109
f 191/37/110 190/31/110 189/30/110
f 192/23/111 196/17/111 193/16/111
f 195/36/115 360/33/115 196/34/115
f 171/1/116 181/33/116 183/1/116
f 197/12/117 201/14/117 198/13/117
f 200/39/95 384/33/95 197/36/95
f 197/36/95 163/32/95 199/34/95
f 167/30/9 198/31/9 201/37/9
f 201/37/9 383/35/9 168/38/9
f 202/19/217 205/12/217 203/14/217
f 205/36/218 202/32/218 206/34/218
f 199/30/219 204/31/219 203/37/219
f 203/37/220 384/35/220 200/38/220
f 207/23/67 211/24/67 208/16/67
f 210/12/34 385/14/34 211/13/34
f 212/20/121 209/22/121 208/21/121
f 210/36/9 207/32/9 209/34/9
f 211/31/95 385/37/95 213/35/95
f 214/40/122 218/41/122 215/3/122
f 217/40/123 220/41/123 218/3/123
f 219/40/124 221/41/124 220/3/124
f 199/40/221 222/41/221 221/3/221
f 167/40/126 223/41/127 222/3/127
f 167/2/141 216/40/143 215/41/222
f 224/24/129 228/2/129 225/3/129
f 227/42/130 230/43/130 225/3/130
f 227/2/131 231/42/131 229/43/131
f 231/2/132 234/42/132 232/43/132
f 233/42/133 236/43/133 232/3/133
f 235/42/67 238/43/67 236/3/67
f 237/42/134 240/43/134 238/3/134
f 239/42/135 242/43/135 240/3/135
f 239/2/136 244/42/136 241/43/136
f 243/42/137 246/43/137 241/3/137
f 245/42/121 271/43/121 246/3/121
f 247/1/138 250/1/138 248/1/138
f 214/20/223 168/22/223 200/21/223
f 248/1/9 226/23/9 225/3/9
f 225/3/9 230/3/224 229/3/9
f 229/3/9 232/3/9 236/3/9
f 236/3/9 238/3/9 240/3/9
f 240/3/9 242/3/225 241/3/9
f 241/3/9 246/3/224 271/43/9
f 271/43/9 386/1/9 249/1/9
f 249/1/9 248/1/9 225/3/9
f 225/3/9 229/3/9 236/3/9
f 236/3/9 240/3/9 241/3/9
f 241/3/9 271/43/9 249/1/9
f 249/1/9 225/3/9 236/3/9
f 245/42/95 243/2/95 244/2/95
f 244/2/95 239/2/226 237/2/95
f 237/2/95 235/2/226 233/2/95
f 233/2/95 234/2/227 231/2/95
f 231/2/95 227/2/228 228/2/95
f 228/2/95 224/24/95 250/1/95
f 250/1/95 247/1/95 270/1/95
f 245/42/95 244/2/95 237/2/95
f 250/1/95 270/1/95 245/42/95
f 231/2/95 228/2/95 250/1/95
f 237/2/95 233/2/95 231/2/95
f 250/1/95 245/42/95 237/2/95
f 382/1/229 201/1/229 198/1/229
f 198/1/230 167/1/230 223/1/230
f 223/1/231 387/1/231 165/1/231
f 165/1/146 382/1/232 198/1/144
f 224/24/147 226/23/147 248/1/147
f 251/20/121 275/22/121 252/21/121
f 254/44/148 258/48/148 255/45/148
f 257/47/34 263/54/34 256/46/34
f 258/48/67 254/44/67 259/49/67
f 261/51/121 260/82/121 259/52/121
f 261/51/9 257/47/9 255/45/9
f 255/45/9 258/48/9 260/50/9
f 262/55/95 259/49/95 254/44/95
f 254/44/95 256/46/95 263/54/95
f 257/56/149 261/83/149 262/55/149
f 264/58/149 272/84/149 265/59/149
f 267/61/67 273/85/67 268/62/67
f 270/1/150 386/1/150 271/43/150
f 272/64/121 269/86/121 268/65/121
f 264/67/9 267/87/9 269/68/9
f 266/70/95 265/88/95 268/71/95
f 274/73/151 344/81/151 252/74/151
f 276/7/152 279/15/152 277/23/152
f 251/1/9 354/1/9 277/1/9
f 279/1/9 274/1/9 275/1/9
f 251/1/9 277/1/9 279/1/9
f 280/76/153 284/89/153 281/3/153
f 283/76/149 286/89/149 284/3/149
f 285/76/154 288/89/154 286/3/154
f 287/76/34 290/89/34 288/3/34
f 289/76/155 292/89/155 290/3/155
f 282/80/95 293/3/95 291/90/95
f 291/90/95 289/91/95 287/78/95
f 287/78/95 285/92/95 283/79/95
f 283/79/95 280/93/95 282/80/95
f 282/80/95 291/90/95 287/78/95
f 291/76/67 294/89/67 292/3/67
f 293/76/156 295/89/156 294/3/156
f 295/3/9 281/89/9 284/3/9
f 284/3/9 286/3/9 288/3/9
f 288/3/9 290/3/9 292/3/9
f 292/3/9 294/3/9 295/3/9
f 295/3/9 284/3/9 288/3/9
f 282/76/121 281/89/121 295/3/121
f 296/26/153 388/28/153 297/27/153
f 298/33/95 297/35/95 299/30/95
f 299/30/95 305/30/95 300/17/95
f 301/33/95 298/33/95 299/30/95
f 296/36/154 298/33/154 301/34/154
f 297/35/157 388/37/233 303/31/157
f 304/23/67 300/17/67 305/16/67
f 303/37/9 388/28/9 296/36/9
f 302/36/9 304/23/9 306/31/9
f 303/37/9 296/36/9 302/36/9
f 302/36/34 301/33/34 300/34/34
f 299/35/158 303/37/234 306/31/159
f 307/26/149 315/29/149 308/27/149
f 307/12/65 309/14/65 88/13/65
f 311/23/161 314/24/161 312/16/161
f 87/12/162 89/14/162 314/13/162
f 315/20/163 313/22/164 312/21/164
f 316/26/149 320/28/149 317/27/149
f 316/12/77 389/19/77 319/13/77
f 321/23/165 326/17/165 322/16/165
f 324/12/166 321/19/166 323/13/166
f 318/20/167 317/25/167 322/21/168
f 327/26/149 337/29/149 328/27/149
f 327/12/65 329/14/65 330/13/65
f 332/12/169 336/14/169 333/13/169
f 329/14/75 328/25/75 335/21/75
f 335/21/75 333/13/75 336/14/75
f 336/14/75 330/13/75 329/14/75
f 337/20/163 338/22/163 335/21/163
f 335/21/170 338/22/170 334/19/170
f 338/22/74 337/20/74 327/12/74
f 327/12/74 331/19/74 332/12/74
f 332/12/74 334/19/74 338/22/74
f 330/13/171 336/14/171 332/12/171
f 113/26/149 106/28/149 339/27/149
f 113/12/77 342/19/77 341/13/77
f 112/12/172 107/14/172 341/13/172
f 112/12/173 109/19/173 343/13/173
f 340/20/167 339/25/167 105/21/167
f 249/1/174 386/1/174 270/1/174
f 344/81/34 274/73/34 279/15/34
f 345/15/121 41/1/121 43/1/121
f 346/1/175 55/18/175 54/11/176
f 48/7/9 56/12/9 58/19/9
f 58/19/9 54/11/9 50/9/9
f 50/9/9 52/17/9 48/7/9
f 346/1/177 347/1/177 58/1/177
f 349/17/177 45/11/177 350/18/177
f 345/15/9 38/6/9 351/1/9
f 351/1/9 350/18/9 44/10/9
f 44/10/9 41/1/9 345/15/9
f 348/1/235 47/6/235 49/15/235
f 49/15/95 51/16/95 53/10/95
f 53/10/236 55/18/236 348/1/236
f 349/19/95 40/12/95 39/7/95
f 39/7/95 43/1/95 42/9/95
f 42/9/95 45/11/95 349/19/95
f 352/1/95 91/1/95 353/1/95
f 354/17/9 356/34/9 355/32/9
f 353/1/179 91/1/179 356/1/179
f 276/1/95 278/1/95 353/1/95
f 353/1/95 253/1/95 252/1/95
f 252/1/95 344/1/95 276/1/95
f 357/1/237 49/1/237 128/1/237
f 129/13/95 381/14/95 357/1/95
f 75/12/181 62/14/181 358/27/181
f 353/16/182 354/1/182 251/20/182
f 189/16/213 363/17/213 359/1/213
f 193/1/214 196/17/9 360/33/113
f 361/1/114 189/16/215 359/1/183
f 359/1/183 193/1/214 360/33/113
f 360/33/113 187/1/216 361/1/114
f 190/31/95 191/37/95 185/37/95
f 185/37/210 195/36/95 192/23/95
f 185/37/210 192/23/95 194/1/211
f 188/23/95 190/31/95 185/37/95
f 185/37/210 194/1/211 362/1/212
f 362/1/184 359/1/187 363/17/185
f 362/1/107 194/1/107 193/1/107
f 185/37/116 187/1/116 360/33/116
f 364/17/185 173/23/186 172/1/184
s 0
f 372/1/95 367/1/95 365/1/95
f 368/1/121 372/1/121 371/1/121
s 1
f 277/23/188 355/32/188 352/1/188
f 87/12/238 311/19/238 313/17/238
f 313/17/74 315/20/74 307/26/74
f 307/26/239 310/19/239 87/12/239
f 89/14/240 88/13/240 309/28/240
f 309/28/75 308/25/75 312/16/75
f 312/16/241 314/13/241 89/14/241
f 319/13/191 389/19/191 324/12/191
f 316/12/76 318/20/76 326/22/76
f 326/22/242 321/23/242 324/12/242
f 324/12/243 389/19/243 316/12/243
f 322/21/71 317/25/71 320/14/71
f 320/14/244 319/13/244 325/14/244
f 325/14/245 323/24/245 322/21/245
f 144/21/90 148/21/90 154/22/90
f 150/32/9 376/32/9 373/34/9
f 156/32/246 377/32/246 374/34/246
f 144/30/93 142/31/93 375/31/93
f 147/13/96 149/13/96 376/19/96
f 141/19/88 155/19/88 375/13/88
f 156/19/98 139/13/98 138/13/98
f 137/22/97 373/22/97 148/21/97
f 137/21/99 157/22/99 374/22/99
f 27/1/247 34/1/248 36/1/248
f 18/1/247 15/1/247 27/1/247
f 27/1/247 30/1/247 37/1/247
f 37/1/247 31/1/249 34/1/248
f 34/1/248 24/1/248 36/1/248
f 36/1/248 18/1/247 27/1/247
f 27/1/247 37/1/247 34/1/248
s 0
f 371/1/9 369/1/9 370/1/9
f 370/1/34 369/1/34 365/1/34
f 372/1/95 366/1/95 367/1/95
f 368/1/121 366/1/121 372/1/121
