# Made in Blockbench 5.1.6
mtllib scorch black.mtl

o cylinder2
v 0.291024 0.149086 -0.072319
v 1.422622 0.089779 -0.029957
v 0.291024 0.089779 -0.029957
v 0.291024 0.232964 -0.072319
v 1.422622 0.149086 -0.072319
v 0.291024 0.292271 -0.029957
v 1.422622 0.232964 -0.072319
v 0.291024 0.292271 0.029957
v 1.422622 0.292271 -0.029957
v 0.291024 0.232964 0.072319
v 1.422622 0.292271 0.029957
v 0.291024 0.149086 0.072319
v 1.422622 0.232964 0.072319
v 0.291024 0.089779 0.029957
v 1.422622 0.149086 0.072319
v 1.422622 0.089779 0.029957
v -0.634656 0.21716999999999997 -0.043391
v 0.233169 0.16209800000000002 -0.017975
v -0.634656 0.16209800000000002 -0.017975
v -0.634656 0.295054 -0.043391
v 0.233169 0.21716999999999997 -0.043391
v -0.634656 0.350126 -0.017975
v 0.233169 0.295054 -0.043391
v -0.634656 0.350126 0.017975
v 0.233169 0.350126 -0.017975
v -0.634656 0.295054 0.043391
v 0.233169 0.350126 0.017975
v -0.634656 0.21716999999999997 0.043391
v 0.233169 0.295054 0.043391
v -0.634656 0.16209800000000002 0.017975
v 0.233169 0.21716999999999997 0.043391
v 0.233169 0.16209800000000002 0.017975
v -0.649119 -0.263507 -0.043391
v -0.8082210000000001 -0.12717699999999998 0.043391
v -0.8082210000000001 -0.127178 -0.043391
v -0.620192 0.515383 0.043391
v -0.649119 -0.263507 0.043391
v -0.8082210000000001 0.393517 0.043391
v -0.620192 0.515383 -0.043391
v 0.41119300000000003 0.449252 0.043391
v 0.41119300000000003 0.337729 -0.043391
v 0.41119300000000003 0.449252 -0.043391
v 0.262967 0.42100000000000004 0.043391
v 0.262967 0.337729 -0.043391
v 0.262967 0.337729 0.043391
v 0.262967 0.42100000000000004 -0.043391
v 0.41119300000000003 0.337729 0.043391
v 0.203945 0.6565 0.043391
v 0.203945 0.6565 -0.043391
v 0.13606000000000001 0.54775 0.043391
v 0.13606000000000001 0.54775 -0.043391
v 0.095195 0.6565 0.043391
v 0.095195 0.54775 -0.043391
v 0.095195 0.54775 0.043391
v 0.095195 0.6565 -0.043391
v -0.29464 -0.19200299999999998 0.028928
v -0.479812 -0.159352 -0.028927
v -0.29464 -0.19200299999999998 -0.028927
v -0.39143799999999995 0.254737 0.028927
v -0.516585 -0.130426 0.028928
v -0.479812 -0.159352 0.028928
v -0.167838 0.216053 -0.028928
v -0.516585 -0.130426 -0.028927
v -0.39143799999999995 0.254737 -0.028928
v -0.8082210000000001 0.393517 -0.043391
v -0.167838 0.216053 0.028927
vt 0.414212 0.875
vt 0 1
vt 0 0.875
vt 0.414212 0.875
vt 0 1
vt 0 0.875
vt 0.414212 0.875
vt 0 1
vt 0 0.875
vt 0.414212 0.875
vt 0 1
vt 0 0.875
vt 0.414212 0.875
vt 0 1
vt 0 0.875
vt 0.414212 0.875
vt 0 1
vt 0 0.875
vt 0 0.875
vt 0 0.875
vt 0 0.875
vt 0.414212 0.875
vt 0 1
vt 0 0.875
vt 0.414212 0.875
vt 0 1
vt 0 0.875
vt 0.414212 0.875
vt 0 1
vt 0 0.875
vt 0.414212 0.875
vt 0 1
vt 0 0.875
vt 0.414212 0.875
vt 0 1
vt 0 0.875
vt 0.414212 0.875
vt 0 1
vt 0 0.875
vt 0.414212 0.875
vt 0 1
vt 0 0.875
vt 0.414212 0.875
vt 0 1
vt 0 0.875
vt 0.414212 0.875
vt 0 1
vt 0 0.875
vt 0.414212 0.875
vt 0 1
vt 0 0.875
vt 0.640625 0.984375
vt 0.671875 0.953125
vt 0.671875 0.984375
vt 0 0
vt 0.859375 0.984375
vt 0.640625 0.953125
vt 0.828125 0.984375
vt 0.859375 0.953125
vt 0.859375 0.984375
vt 0.859375 0.953125
vt 0 0
vt 0.640625 0.984375
vt 0 0
vt 0.828125 0.984375
vt 0 0
vt 0.640625 0.953125
vt 0 0
vt 0 0
vt 0.765625 0.984375
vt 0.796875 0.953125
vt 0.796875 0.984375
vt 0.828125 0.984375
vt 0.859375 0.953125
vt 0.859375 0.984375
vt 0.890625 0.984375
vt 0.921875 0.953125
vt 0.921875 0.984375
vt 0.953125 0.984375
vt 0.984375 0.953125
vt 0.984375 0.984375
vt 0.046875 0.921875
vt 0.015625 0.890625
vt 0.046875 0.890625
vt 0.109375 0.921875
vt 0.078125 0.890625
vt 0.109375 0.890625
vt 0.765625 0.984375
vt 0.796875 0.953125
vt 0.796875 0.984375
vt 0.828125 0.984375
vt 0.859375 0.953125
vt 0.859375 0.984375
vt 0.015625 0.921875
vt 0.046875 0.890625
vt 0.046875 0.921875
vt 0.078125 0.921875
vt 0.109375 0.890625
vt 0.109375 0.921875
vt 0.765625 0.984375
vt 0.796875 0.953125
vt 0.796875 0.984375
vt 0.828125 0.984375
vt 0.859375 0.953125
vt 0.859375 0.984375
vt 0.890625 0.984375
vt 0.921875 0.953125
vt 0.921875 0.984375
vt 0.953125 0.984375
vt 0.984375 0.953125
vt 0.984375 0.984375
vt 0.046875 0.921875
vt 0.015625 0.890625
vt 0.046875 0.890625
vt 0.109375 0.921875
vt 0.078125 0.890625
vt 0.109375 0.890625
vt 0.140625 0.921875
vt 0.171875 0.890625
vt 0.171875 0.921875
vt 0.328125 0.890625
vt 0.328125 0.921875
vt 0.140625 0.890625
vt 0.203125 0.890625
vt 0.140625 0.921875
vt 0.171875 0.921875
vt 0.171875 0.890625
vt 0.359375 0.921875
vt 0.359375 0.890625
vt 0.328125 0.921875
vt 0.359375 0.890625
vt 0.359375 0.921875
vt 0.140625 0.890625
vt 0.359375 0.921875
vt 0.171875 0.890625
vt 0 1
vt 0.414212 1
vt 0 1
vt 0.414212 0.875
vt 0.414212 1
vt 0 1
vt 0.414212 0.875
vt 0.414212 1
vt 0 1
vt 0.414212 0.875
vt 0.414212 1
vt 0 1
vt 0.414212 0.875
vt 0.414212 1
vt 0 1
vt 0.414212 0.875
vt 0.414212 1
vt 0 1
vt 0.414212 0.875
vt 0.414212 1
vt 0 1
vt 0 1
vt 0 1
vt 0 1
vt 0 0.875
vt 0.414212 0.875
vt 0 0.875
vt 0 0.875
vt 0 0.875
vt 0 0.875
vt 0 0.875
vt 0 0.875
vt 0 0.875
vt 0 0.875
vt 0 0.875
vt 0 0.875
vt 0 0.875
vt 0 0.875
vt 0 0.875
vt 0.414212 0.875
vt 0.414212 1
vt 0 1
vt 0.414212 0.875
vt 0.414212 1
vt 0 1
vt 0.414212 0.875
vt 0.414212 1
vt 0 1
vt 0.414212 0.875
vt 0.414212 1
vt 0 1
vt 0.414212 0.875
vt 0.414212 1
vt 0 1
vt 0.414212 0.875
vt 0.414212 1
vt 0 1
vt 0.414212 0.875
vt 0.414212 1
vt 0 1
vt 0.414212 0.875
vt 0.414212 1
vt 0 1
vt 0.414212 0.875
vt 0.414212 1
vt 0 1
vt 0.414212 0.875
vt 0.414212 1
vt 0 1
vt 0.640625 0.984375
vt 0.640625 0.953125
vt 0.671875 0.953125
vt 0 0
vt 0.828125 0.984375
vt 0.859375 0.984375
vt 0.828125 0.984375
vt 0.828125 0.953125
vt 0.859375 0.953125
vt 0.859375 0.953125
vt 0.828125 0.953125
vt 0 0
vt 0 0
vt 0.828125 0.953125
vt 0.828125 0.984375
vt 0.640625 0.953125
vt 0.640625 0.984375
vt 0 0
vt 0.765625 0.984375
vt 0.765625 0.953125
vt 0.796875 0.953125
vt 0.828125 0.984375
vt 0.828125 0.953125
vt 0.859375 0.953125
vt 0.890625 0.984375
vt 0.890625 0.953125
vt 0.921875 0.953125
vt 0.953125 0.984375
vt 0.953125 0.953125
vt 0.984375 0.953125
vt 0.046875 0.921875
vt 0.015625 0.921875
vt 0.015625 0.890625
vt 0.109375 0.921875
vt 0.078125 0.921875
vt 0.078125 0.890625
vt 0.765625 0.984375
vt 0.765625 0.953125
vt 0.796875 0.953125
vt 0.828125 0.984375
vt 0.828125 0.953125
vt 0.859375 0.953125
vt 0.015625 0.921875
vt 0.015625 0.890625
vt 0.046875 0.890625
vt 0.078125 0.921875
vt 0.078125 0.890625
vt 0.109375 0.890625
vt 0.765625 0.984375
vt 0.765625 0.953125
vt 0.796875 0.953125
vt 0.828125 0.984375
vt 0.828125 0.953125
vt 0.859375 0.953125
vt 0.890625 0.984375
vt 0.890625 0.953125
vt 0.921875 0.953125
vt 0.953125 0.984375
vt 0.953125 0.953125
vt 0.984375 0.953125
vt 0.046875 0.921875
vt 0.015625 0.921875
vt 0.015625 0.890625
vt 0.109375 0.921875
vt 0.078125 0.921875
vt 0.078125 0.890625
vt 0.140625 0.921875
vt 0.140625 0.890625
vt 0.171875 0.890625
vt 0.140625 0.890625
vt 0.140625 0.921875
vt 0.328125 0.890625
vt 0.140625 0.921875
vt 0.203125 0.921875
vt 0.328125 0.890625
vt 0.203125 0.890625
vt 0.203125 0.921875
vt 0.140625 0.921875
vt 0.203125 0.890625
vt 0.171875 0.921875
vt 0.359375 0.890625
vt 0.171875 0.921875
vt 0.171875 0.890625
vt 0.359375 0.890625
vt 0.328125 0.921875
vt 0.328125 0.890625
vt 0.359375 0.890625
vt 0.140625 0.890625
vt 0.328125 0.921875
vt 0.359375 0.921875
vt 0 1
vt 0 1
vt 0 1
vt 0 1
vt 0.414212 1
vt 0 1
vt 0.414212 1
vt 0.414212 1
vt 0 1
vt 0 1
vt 0 1
vt 0 1
vt 0 1
vt 0 1
vt 0 1
vt 0 1
vt 0.414212 1
vt 0 1
vt 0 1
vt 0 1
vt 0 1
vt 0 1
vt 0 1
vt 0 1
vt 0 1
vt 0 1
vt 0 1
vt 0 1
vt 0 1
vt 0 1
vn 0 -0.5812368958129578 -0.813734398280985
vn 0 0 -1
vn 0 0.5812368958129578 -0.813734398280985
vn 0 1 0
vn 0 0.5812368958129578 0.813734398280985
vn 0 0 1
vn -1 0 0
vn 0 -0.5812368958129578 0.813734398280985
vn 0 -1 0
vn 0 -0.41903308492232805 -0.9079709652519056
vn 0 0 -1
vn 0 0.4190330849223277 -0.9079709652519057
vn 0 1 0
vn 0 0.4190330849223277 0.9079709652519057
vn 0 0 1
vn 0 -0.41903308492232805 0.9079709652519056
vn 0 -1 0
vn -0.6506699115950666 -0.7593606956304113 0.000008750209670846729
vn 0 0 1
vn -1 0 0
vn 0 0 -1
vn -0.5438808464127423 0.8391624544183082 0
vn 0.9993110692641745 -0.03711316270667849 0
vn 1 0 0
vn -1 0 0
vn -0.18723026413960658 0.9823160531062358 0
vn 0 -1 0
vn 0 0 1
vn 0 0 -1
vn 0.7071067811865475 0.7071067811865476 0
vn -0.70666898487201 -0.7075443066126409 0
vn 0 0 1
vn 0 0 -1
vn 0.8482917838491315 -0.5295290827273406 0
vn -1 0 0
vn 0 1 0
vn 0 -1 0
vn 0 0 1
vn 0 0 -1
vn -0.1736491077949432 -0.984807589005091 0
vn 0.0000016265547007614164 0.0000020678039138179967 0.9999999999965394
vn 0.9549554716288289 -0.2967491317698522 0
vn -0.0000016265547007614142 -0.0000020678039138179975 -0.9999999999965394
vn -0.9510565489222328 0.3090168939591048 0
vn -0.6182566184473576 -0.7859763060970978 0
vn 1 0 0
vn 0 -0.5812368958129578 -0.813734398280985
vn 0 0 -1
vn 0 0.5812368958129578 -0.813734398280985
vn 0 1 0
vn 0 0.5812368958129578 0.813734398280985
vn 0 0 1
vn 1 0 0
vn -1 0 0
vn -1 0 0
vn -1 0 0
vn -1 0 0
vn -1 0 0
vn 0 -0.5812368958129578 0.813734398280985
vn 0 -1 0
vn 0 -0.41903308492232805 -0.9079709652519056
vn 0 0 -1
vn 0 0.4190330849223277 -0.9079709652519057
vn 0 1 0
vn 0 0.4190330849223277 0.9079709652519057
vn 0 0 1
vn 0 -0.41903308492232805 0.9079709652519056
vn 0 -1 0
vn -0.6506726637356337 -0.7593583374581298 0
vn 0 0 1
vn -1 0 0
vn 0 0 -1
vn -0.5438808464127423 0.8391624544183082 0
vn 0.9993110692641745 -0.03711316270667849 0
vn 1 0 0
vn -1 0 0
vn -0.18723026413960658 0.9823160531062358 0
vn 0 -1 0
vn 0 0 1
vn 0 0 -1
vn 0.7071067811865475 0.7071067811865476 0
vn -0.70666898487201 -0.7075443066126409 0
vn 0 0 1
vn 0 0 -1
vn 0.8482917838491315 -0.5295290827273406 0
vn -1 0 0
vn 0 1 0
vn 0 -1 0
vn 0 0 1
vn 0 0 -1
vn -0.1736491077949432 -0.984807589005091 0
vn 4.10378227796637e-7 0.0000023273577286318602 0.9999999999972077
vn 4.023442128613786e-7 0.0000023256169474667626 0.999999999997215
vn 0.9549554716288289 -0.2967491317698521 0
vn -4.023442128613786e-7 -0.000002325616947466762 -0.999999999997215
vn -4.10378227796637e-7 -0.0000023273577286318602 -0.9999999999972077
vn -0.951056548922233 0.3090168939591048 0
vn -0.6182566184473576 -0.7859763060970978 0
vn 1 0 0
vn 1 0 0
vn 1 0 0
vn 1 0 0
vn 1 0 0
vn 1 0 0
vn 1 0 0
vn 1 0 0
vn 1 0 0
vn 1 0 0
usemtl none
f 1/1/1 2/2/1 3/3/1
f 4/4/2 5/5/2 1/6/2
f 6/7/3 7/8/3 4/9/3
f 8/10/4 9/11/4 6/12/4
f 10/13/5 11/14/5 8/15/5
f 12/16/6 13/17/6 10/18/6
f 4/19/7 1/20/7 10/21/7
f 14/22/8 15/23/8 12/24/8
f 3/25/9 16/26/9 14/27/9
f 17/28/10 18/29/10 19/30/10
f 20/31/11 21/32/11 17/33/11
f 22/34/12 23/35/12 20/36/12
f 24/37/13 25/38/13 22/39/13
f 26/40/14 27/41/14 24/42/14
f 28/43/15 29/44/15 26/45/15
f 30/46/16 31/47/16 28/48/16
f 19/49/17 32/50/17 30/51/17
f 33/52/18 34/53/18 35/54/18
f 36/55/19 34/56/19 37/57/19
f 38/58/20 35/59/20 34/60/20
f 35/61/21 39/62/21 33/63/21
f 39/64/22 38/65/22 36/66/22
f 37/67/23 39/68/23 36/69/23
f 40/70/24 41/71/24 42/72/24
f 43/73/25 44/74/25 45/75/25
f 40/76/26 46/77/26 43/78/26
f 47/79/27 44/80/27 41/81/27
f 47/82/28 43/83/28 45/84/28
f 46/85/29 41/86/29 44/87/29
f 48/88/30 42/89/30 49/90/30
f 50/91/31 46/92/31 43/93/31
f 48/94/32 43/95/32 40/96/32
f 49/97/33 46/98/33 51/99/33
f 48/100/34 51/101/34 49/102/34
f 52/103/35 53/104/35 54/105/35
f 48/106/36 55/107/36 52/108/36
f 50/109/37 53/110/37 51/111/37
f 50/112/38 52/113/38 54/114/38
f 55/115/39 51/116/39 53/117/39
f 56/118/40 57/119/40 58/120/40
f 59/121/41 60/122/41 61/123/41
f 62/124/42 56/125/42 58/126/42
f 57/127/43 63/128/43 64/129/43
f 60/130/44 64/131/44 63/132/44
f 61/133/45 63/134/45 57/135/45
f 25/136/46 27/137/46 29/138/46
f 1/139/47 5/140/47 2/141/47
f 4/142/48 7/143/48 5/144/48
f 6/145/49 9/146/49 7/147/49
f 8/148/50 11/149/50 9/150/50
f 10/151/51 13/152/51 11/153/51
f 12/154/52 15/155/52 13/156/52
f 9/157/53 13/158/53 16/159/53
f 1/160/54 3/161/54 14/162/54
f 14/163/55 12/164/55 1/165/55
f 12/166/56 10/167/56 1/168/56
f 10/169/57 8/170/57 6/171/57
f 6/172/58 4/173/58 10/174/58
f 14/175/59 16/176/59 15/177/59
f 3/178/60 2/179/60 16/180/60
f 17/181/61 21/182/61 18/183/61
f 20/184/62 23/185/62 21/186/62
f 22/187/63 25/188/63 23/189/63
f 24/190/64 27/191/64 25/192/64
f 26/193/65 29/194/65 27/195/65
f 28/196/66 31/197/66 29/198/66
f 30/199/67 32/200/67 31/201/67
f 19/202/68 18/203/68 32/204/68
f 33/205/69 37/206/69 34/207/69
f 36/208/70 38/209/70 34/210/70
f 38/211/71 65/212/71 35/213/71
f 35/214/72 65/215/72 39/216/72
f 39/217/73 65/218/73 38/219/73
f 37/220/74 33/221/74 39/222/74
f 40/223/75 47/224/75 41/225/75
f 43/226/76 46/227/76 44/228/76
f 40/229/77 42/230/77 46/231/77
f 47/232/78 45/233/78 44/234/78
f 47/235/79 40/236/79 43/237/79
f 46/238/80 42/239/80 41/240/80
f 48/241/81 40/242/81 42/243/81
f 50/244/82 51/245/82 46/246/82
f 48/247/83 50/248/83 43/249/83
f 49/250/84 42/251/84 46/252/84
f 48/253/85 50/254/85 51/255/85
f 52/256/86 55/257/86 53/258/86
f 48/259/87 49/260/87 55/261/87
f 50/262/88 54/263/88 53/264/88
f 50/265/89 48/266/89 52/267/89
f 55/268/90 49/269/90 51/270/90
f 56/271/91 61/272/91 57/273/91
f 61/274/92 56/275/92 59/276/92
f 56/277/93 66/278/93 59/279/93
f 62/280/94 66/281/94 56/282/94
f 62/283/95 58/284/95 64/285/95
f 58/286/96 57/287/96 64/288/96
f 60/289/97 59/290/97 64/291/97
f 61/292/98 60/293/98 63/294/98
f 29/295/99 31/296/99 21/297/99
f 31/298/100 32/299/100 21/300/100
f 32/301/101 18/302/101 21/303/101
f 21/304/102 23/305/102 29/306/102
f 23/307/103 25/308/103 29/309/103
f 16/310/104 2/311/104 5/312/104
f 5/313/105 7/314/105 9/315/105
f 9/316/106 11/317/106 13/318/106
f 13/319/107 15/320/107 16/321/107
f 16/322/108 5/323/108 9/324/108