# Blender 5.2.0 LTS
# www.blender.org
mtllib scorch blue.mtl
o cylinder
v 1.184375 0.137538 0.062500
v 0.815625 0.137538 0.062500
v 1.184375 0.190625 0.025888
v 0.815625 0.190625 0.025888
v 1.184375 0.190625 -0.025888
v 0.815625 0.190625 -0.025888
v 1.184375 0.137538 -0.062500
v 0.815625 0.137538 -0.062500
v 1.184375 0.062462 -0.062500
v 0.815625 0.062462 -0.062500
v 1.184375 0.009375 -0.025888
v 0.815625 0.009375 -0.025888
v 1.184375 0.009375 0.025888
v 0.815625 0.009375 0.025888
v 1.184375 0.062462 0.062500
v 0.815625 0.062462 0.062500
v -0.177379 0.492897 -0.048264
v -0.177379 0.531729 -0.048264
v -0.177379 0.559188 -0.019992
v -0.177379 0.559188 0.019992
v -0.177379 0.531729 0.048264
v -0.177379 0.492897 0.048264
v -0.177379 0.465438 0.019992
v -0.177379 0.465438 -0.019992
v -0.152145 0.465438 -0.019992
v -0.152145 0.465438 0.019992
v -0.152145 0.492897 0.048264
v -0.152145 0.531729 0.048264
v -0.152145 0.559188 0.019992
v -0.152145 0.559188 -0.019992
v -0.152145 0.531729 -0.048264
v -0.152145 0.492897 -0.048264
v -0.131661 0.062904 -0.167960
v -0.131661 0.130472 -0.167960
v -0.050097 0.096688 -0.167960
v -0.083881 0.015125 -0.167960
v -0.016314 0.015125 -0.167960
v 0.031464 0.062904 -0.167960
v 0.031464 0.130472 -0.167960
v -0.016314 0.178250 -0.167960
v -0.083881 0.178250 -0.167960
v -0.131661 0.130472 0.167960
v -0.131661 0.062904 0.167960
v -0.050097 0.096688 0.167960
v -0.083881 0.015125 0.167960
v -0.016314 0.015125 0.167960
v 0.031464 0.062904 0.167960
v 0.031464 0.130472 0.167960
v -0.016314 0.178250 0.167960
v -0.083881 0.178250 0.167960
v 1.056504 0.047687 -0.076982
v 1.012799 0.167762 -0.076982
v 1.066451 0.187290 -0.076982
v 1.110154 0.067215 -0.076982
v 0.665004 0.047687 -0.076982
v 0.621299 0.167762 -0.076982
v 0.674951 0.187290 -0.076982
v 0.718654 0.067215 -0.076982
v 1.002739 0.220391 -0.101000
v 1.112847 0.220391 -0.101000
v 1.112847 0.163297 -0.101000
v 1.002739 0.163297 -0.101000
v 0.614636 0.083049 0.087003
v 0.614636 0.035577 0.119663
v 0.724746 0.035577 0.119663
v 0.724746 0.083049 0.087003
v 0.242169 0.083049 0.087003
v 0.242169 0.035577 0.119663
v 0.352277 0.035577 0.119663
v 0.352277 0.083049 0.087003
v 1.008856 0.081689 0.092602
v 1.008856 0.034217 0.125261
v 1.118964 0.034217 0.125261
v 1.118964 0.081689 0.092602
v 0.613958 0.220391 -0.101000
v 0.725426 0.220391 -0.101000
v 0.725426 0.163297 -0.101000
v 0.613958 0.163297 -0.101000
v -0.877033 0.258991 -0.090978
v -0.877033 0.281514 -0.090978
v -0.904221 0.270253 -0.090978
v -0.892959 0.243065 -0.090978
v -0.915481 0.243065 -0.090978
v -0.931408 0.258991 -0.090978
v -0.931408 0.281514 -0.090978
v -0.915481 0.297440 -0.090978
v -0.892959 0.297440 -0.090978
v -0.877033 0.281514 0.090978
v -0.877033 0.258991 0.090978
v -0.904221 0.270253 0.090978
v -0.892959 0.243065 0.090978
v -0.915481 0.243065 0.090978
v -0.931408 0.258991 0.090978
v -0.931408 0.281514 0.090978
v -0.915481 0.297440 0.090978
v -0.892959 0.297440 0.090978
v 1.066451 0.187290 0.076982
v 1.012799 0.167762 0.076982
v 1.056504 0.047687 0.076982
v 1.110154 0.067215 0.076982
v 0.674951 0.187290 0.076982
v 0.621299 0.167762 0.076982
v 0.665004 0.047687 0.076982
v 0.718654 0.067215 0.076982
v 1.112847 0.163297 0.101000
v 1.112847 0.220391 0.101000
v 1.002739 0.220391 0.101000
v 1.002739 0.163297 0.101000
v 0.724746 0.035577 -0.119663
v 0.614636 0.035577 -0.119663
v 0.614636 0.083049 -0.087003
v 0.724746 0.083049 -0.087003
v 0.352277 0.035577 -0.119663
v 0.242169 0.035577 -0.119663
v 0.242169 0.083049 -0.087003
v 0.352277 0.083049 -0.087003
v 1.118964 0.034217 -0.125261
v 1.008856 0.034217 -0.125261
v 1.008856 0.081689 -0.092602
v 1.118964 0.081689 -0.092602
v 0.725426 0.163297 0.101000
v 0.725426 0.220391 0.101000
v 0.613958 0.220391 0.101000
v 0.613958 0.163297 0.101000
vn -0.0000 -0.5677 -0.8232
vn -0.0000 -1.0000 -0.0000
vn -0.0000 -0.5677 0.8232
vn -0.0000 -0.0000 1.0000
vn -0.0000 0.5677 0.8232
vn -0.0000 1.0000 -0.0000
vn 1.0000 -0.0000 -0.0000
vn -0.0000 0.5677 -0.8232
vn -1.0000 -0.0000 -0.0000
vn -0.0000 -0.0000 -1.0000
vn 0.7071 0.7071 -0.0000
vn 0.7071 -0.7071 -0.0000
vn -0.7071 -0.7071 -0.0000
vn -0.0000 -0.5668 -0.8239
vn -0.7071 0.7071 -0.0000
vn -0.0000 -0.5668 0.8239
vn -0.0000 0.7173 -0.6967
vn -0.0000 0.7173 0.6967
vn -0.0000 -0.7173 0.6967
vn -0.0000 -0.7173 -0.6967
vt 0.414212 0.500000
vt 0.000000 0.500000
vt 0.000000 1.000000
vt 0.000000 0.000000
vt 1.000000 1.000000
vt 1.000000 0.000000
vt 0.414212 1.000000
s 0
usemtl none.001
f 3/1/1 1/2/1 2/3/1
f 5/1/2 3/2/2 4/3/2
f 7/1/3 5/2/3 6/3/3
f 9/1/4 7/2/4 8/3/4
f 11/1/5 9/2/5 10/3/5
f 13/1/6 11/2/6 12/3/6
f 12/3/7 8/3/7 4/3/7
f 15/1/8 13/2/8 14/3/8
f 7/2/9 11/2/9 15/2/9
f 1/1/10 15/2/10 16/3/10
f 26/4/7 28/4/7 27/4/7
f 26/4/7 29/4/7 28/4/7
f 30/4/7 26/4/7 25/4/7
f 29/4/7 26/4/7 30/4/7
f 22/4/9 21/4/9 20/4/9
f 23/4/9 22/4/9 20/4/9
f 20/4/9 24/4/9 23/4/9
f 24/4/9 20/4/9 19/4/9
f 19/4/9 18/4/9 24/4/9
f 50/4/6 40/4/6 41/4/6
f 40/4/6 50/4/6 49/4/6
f 39/4/11 40/4/11 49/4/11
f 39/4/11 49/4/11 48/4/11
f 47/4/7 39/4/7 48/4/7
f 47/4/7 38/4/7 39/4/7
f 47/4/12 37/4/12 38/4/12
f 47/4/12 46/4/12 37/4/12
f 33/4/9 43/4/9 34/4/9
f 45/4/13 43/4/13 33/4/13
f 44/4/4 43/4/4 45/4/4
f 46/4/4 44/4/4 45/4/4
f 47/4/4 44/4/4 46/4/4
f 48/4/4 44/4/4 47/4/4
f 49/4/4 44/4/4 48/4/4
f 50/4/4 44/4/4 49/4/4
f 52/5/4 51/6/4 54/4/4
f 56/5/4 55/6/4 58/4/4
f 60/5/4 59/6/4 62/4/4
f 64/5/14 63/3/14 66/4/14
f 68/5/14 67/3/14 70/4/14
f 72/5/14 71/3/14 74/4/14
f 76/5/4 75/6/4 78/4/4
f 89/4/4 88/4/4 90/4/4
f 91/4/4 89/4/4 90/4/4
f 79/4/12 89/4/12 91/4/12
f 88/4/7 89/4/7 79/4/7
f 80/4/7 88/4/7 79/4/7
f 96/4/6 87/4/6 86/4/6
f 86/4/6 95/4/6 96/4/6
f 85/4/15 95/4/15 86/4/15
f 87/4/10 81/4/10 86/4/10
f 87/4/10 80/4/10 81/4/10
f 96/4/11 80/4/11 87/4/11
f 88/4/11 80/4/11 96/4/11
f 90/4/4 88/4/4 96/4/4
f 95/4/4 90/4/4 96/4/4
f 94/4/4 90/4/4 95/4/4
f 93/4/4 90/4/4 94/4/4
f 98/5/10 97/3/10 100/4/10
f 102/5/10 101/3/10 104/4/10
f 106/5/10 105/3/10 108/4/10
f 110/5/16 109/6/16 112/4/16
f 114/5/16 113/6/16 116/4/16
f 118/5/16 117/6/16 120/4/16
f 122/5/10 121/3/10 124/4/10
f 44/4/4 50/4/4 42/4/4
f 43/4/4 44/4/4 42/4/4
f 34/4/9 43/4/9 42/4/9
f 85/4/15 94/4/15 95/4/15
f 92/4/4 90/4/4 93/4/4
f 93/4/9 94/4/9 85/4/9
f 93/4/9 85/4/9 84/4/9
f 3/1/1 2/3/1 4/7/1
f 5/1/2 4/3/2 6/7/2
f 7/1/3 6/3/3 8/7/3
f 9/1/4 8/3/4 10/7/4
f 11/1/5 10/3/5 12/7/5
f 13/1/6 12/3/6 14/7/6
f 15/1/8 14/3/8 16/7/8
f 1/1/10 16/3/10 2/7/10
f 19/4/17 30/4/17 18/4/17
f 29/4/6 30/4/6 19/4/6
f 20/4/6 29/4/6 19/4/6
f 28/4/18 29/4/18 20/4/18
f 21/4/18 28/4/18 20/4/18
f 27/4/4 28/4/4 21/4/4
f 22/4/4 27/4/4 21/4/4
f 26/4/19 27/4/19 22/4/19
f 23/4/19 26/4/19 22/4/19
f 25/4/2 26/4/2 23/4/2
f 24/4/2 25/4/2 23/4/2
f 17/4/10 31/4/10 32/4/10
f 24/4/20 17/4/20 32/4/20
f 52/5/4 54/4/4 53/3/4
f 56/5/4 58/4/4 57/3/4
f 60/5/4 62/4/4 61/3/4
f 64/5/14 66/4/14 65/6/14
f 68/5/14 70/4/14 69/6/14
f 72/5/14 74/4/14 73/6/14
f 76/5/4 78/4/4 77/3/4
f 98/5/10 100/4/10 99/6/10
f 102/5/10 104/4/10 103/6/10
f 106/5/10 108/4/10 107/6/10
f 110/5/16 112/4/16 111/3/16
f 114/5/16 116/4/16 115/3/16
f 118/5/16 120/4/16 119/3/16
f 122/5/10 124/4/10 123/6/10
f 50/4/15 34/4/15 42/4/15
f 41/4/15 34/4/15 50/4/15
f 35/4/10 34/4/10 41/4/10
f 40/4/10 35/4/10 41/4/10
f 39/4/10 35/4/10 40/4/10
f 38/4/10 35/4/10 39/4/10
f 37/4/10 35/4/10 38/4/10
f 36/4/10 35/4/10 37/4/10
f 46/4/2 36/4/2 37/4/2
f 45/4/2 36/4/2 46/4/2
f 33/4/13 36/4/13 45/4/13
f 35/4/10 36/4/10 33/4/10
f 35/4/10 33/4/10 34/4/10
f 93/4/13 84/4/13 83/4/13
f 92/4/13 93/4/13 83/4/13
f 82/4/2 92/4/2 83/4/2
f 83/4/10 81/4/10 82/4/10
f 84/4/10 81/4/10 83/4/10
f 85/4/10 81/4/10 84/4/10
f 91/4/4 90/4/4 92/4/4
f 82/4/2 91/4/2 92/4/2
f 79/4/12 91/4/12 82/4/12
f 81/4/10 79/4/10 82/4/10
f 86/4/10 81/4/10 85/4/10
f 81/4/10 80/4/10 79/4/10
f 25/4/20 24/4/20 32/4/20
f 30/4/7 25/4/7 32/4/7
f 31/4/7 30/4/7 32/4/7
f 18/4/17 30/4/17 31/4/17
f 17/4/10 18/4/10 31/4/10
f 18/4/9 17/4/9 24/4/9
f 4/3/7 2/7/7 16/3/7
f 16/3/7 14/3/7 12/3/7
f 12/3/7 10/3/7 8/3/7
f 8/3/7 6/3/7 4/3/7
f 4/3/7 16/3/7 12/3/7
f 15/2/9 1/1/9 3/2/9
f 3/2/9 5/2/9 7/2/9
f 7/2/9 9/2/9 11/2/9
f 11/2/9 13/2/9 15/2/9
f 15/2/9 3/2/9 7/2/9
